<svg xmlns="http://www.w3.org/2000/svg" viewBox="0 0 512 512"><path d="M256 16C123.451 16 16 123.451 16 256s107.451 240 240 240 240-107.451 240-240S388.549 16 256 16Zm0 432c-105.869 0-192-86.131-192-192S150.131 64 256 64s192 86.131 192 192-86.131 192-192 192Zm40-112h-16v-88c0-13.25-10.75-24-24-24h-32c-13.25 0-24 10.75-24 24s10.75 24 24 24h8v64h-16c-13.25 0-24 10.75-24 24s10.75 24 24 24h80c13.25 0 24-10.75 24-24s-10.75-24-24-24Zm-40-144c17.674 0 32-14.328 32-32 0-17.674-14.326-32-32-32s-32 14.326-32 32c0 17.672 14.326 32 32 32Z"/></svg>