<svg xmlns="http://www.w3.org/2000/svg" viewBox="0 0 448 512"><path d="M136 320H24c-13.254 0-24 10.742-24 24 0 13.254 10.746 24 24 24h88v88c0 13.254 10.746 24 24 24s24-10.746 24-24V344c0-13.258-10.746-24-24-24Zm176-128h112c13.254 0 24-10.746 24-24 0-13.258-10.746-24-24-24h-88V56c0-13.258-10.746-24-24-24s-24 10.742-24 24v112c0 13.254 10.746 24 24 24ZM136 32c-13.254 0-24 10.742-24 24v88H24c-13.254 0-24 10.742-24 24 0 13.254 10.746 24 24 24h112c13.254 0 24-10.746 24-24V56c0-13.258-10.746-24-24-24Zm288 288H312c-13.254 0-24 10.742-24 24v112c0 13.254 10.746 24 24 24s24-10.746 24-24v-88h88c13.254 0 24-10.746 24-24 0-13.258-10.746-24-24-24Z"/></svg>