<svg xmlns="http://www.w3.org/2000/svg" viewBox="0 0 402 402"><g id="Layer_2" data-name="Layer 2"><g id="Layer_1-2" data-name="Layer 1"><circle cx="91.5" cy="91.5" r="91"/><path d="M91.5,1A90.5,90.5,0,1,1,1,91.5,90.6,90.6,0,0,1,91.5,1m0-1A91.5,91.5,0,1,0,183,91.5,91.51,91.51,0,0,0,91.5,0Z"/><circle cx="310.5" cy="91.5" r="91"/><path d="M310.5,1A90.5,90.5,0,1,1,220,91.5,90.6,90.6,0,0,1,310.5,1m0-1A91.5,91.5,0,1,0,402,91.5,91.51,91.51,0,0,0,310.5,0Z"/><circle cx="91.5" cy="310.5" r="91"/><path d="M91.5,220A90.5,90.5,0,1,1,1,310.5,90.6,90.6,0,0,1,91.5,220m0-1A91.5,91.5,0,1,0,183,310.5,91.51,91.51,0,0,0,91.5,219Z"/></g></g></svg>