<svg xmlns="http://www.w3.org/2000/svg" viewBox="0 0 448 512"><path d="M136 32H24C10.746 32 0 42.746 0 56v112c0 13.254 10.746 24 24 24 13.258 0 24-10.746 24-24V80h88c13.258 0 24-10.746 24-24s-10.742-24-24-24Zm288 0H312c-13.254 0-24 10.746-24 24 0 13.258 10.746 24 24 24h88v88c0 13.258 10.746 24 24 24s24-10.742 24-24V56c0-13.254-10.746-24-24-24ZM136 432H48v-88c0-13.258-10.746-24-24-24S0 330.742 0 344v112c0 13.254 10.746 24 24 24h112c13.254 0 24-10.746 24-24 0-13.258-10.746-24-24-24Zm288-112c-13.258 0-24 10.746-24 24v88h-88c-13.258 0-24 10.746-24 24s10.742 24 24 24h112c13.254 0 24-10.746 24-24V344c0-13.254-10.746-24-24-24Z"/></svg>