<svg xmlns="http://www.w3.org/2000/svg" viewBox="0 0 512 512"><path d="M448 32H64C28.654 32 0 60.652 0 96v320c0 35.346 28.654 64 64 64h384c35.348 0 64-28.654 64-64V96c0-35.348-28.652-64-64-64Zm16 384c0 8.822-7.178 16-16 16H64c-8.822 0-16-7.178-16-16V96c0-8.822 7.178-16 16-16h384c8.822 0 16 7.178 16 16v320ZM256.014 256c35.345 0 64-28.656 64-64s-28.655-64-64-64-64 28.656-64 64 28.654 64 64 64Zm32 32h-64c-44.184 0-80 35.816-80 80 0 8.836 7.164 16 16 16h192c8.836 0 16-7.164 16-16 0-44.184-35.817-80-80-80Z"/></svg>