<svg xmlns="http://www.w3.org/2000/svg" viewBox="0 0 512 512"><path d="M152.014 120c-26.51 0-48 21.492-48 48s21.49 48 48 48 48-21.492 48-48-21.491-48-48-48ZM448 32H64C28.654 32 0 60.652 0 96v320c0 35.346 28.654 64 64 64h384c35.348 0 64-28.654 64-64V96c0-35.348-28.652-64-64-64Zm16 377.303L327.229 223.379c-3.391-4.611-9.1-7.379-15.215-7.379-6.114 0-11.823 2.768-15.213 7.379L190.166 368.338l-37.092-46.102c-3.441-4.279-8.933-6.808-14.773-6.808-5.842 0-11.334 2.529-14.776 6.808l-75.507 93.848c0-.029-.018-.055-.018-.084V96c0-8.822 7.178-16 16-16h384c8.822 0 16 7.178 16 16v313.303Z"/></svg>