<svg xmlns="http://www.w3.org/2000/svg" viewBox="0 0 640 512"><path d="M597.895 42.06C570.617 14.797 535.036.777 499.219 0 461.3-.823 423.117 13.197 394.238 42.06l-56.842 56.849c14.389 7.424 27.911 16.528 39.989 27.885l50.791-50.797c18.719-18.703 43.297-28.062 67.89-28.062 24.579 0 49.172 9.359 67.891 28.062 37.422 37.438 37.422 98.344 0 135.781L450.816 324.903c-36.296 36.297-99.5 36.266-135.765 0-18.141-18.14-28.125-42.234-28.125-67.89 0-17.559 5-34.233 13.777-48.926-11.252-10.367-26.887-16.418-43.496-16.418-.687 0-1.338.168-2.021.187-10.239 20.018-16.262 42.03-16.262 65.157 0 38.468 14.986 74.64 42.189 101.828 27.188 27.203 63.36 42.187 101.828 42.187 38.454 0 74.625-14.984 101.813-42.187l113.141-113.125C625.965 217.638 640 180.763 640 143.888s-14.035-73.75-42.105-101.828ZM211.824 435.935c-18.719 18.703-43.297 28.062-67.89 28.062-24.579 0-49.172-9.359-67.891-28.062-37.422-37.438-37.422-98.344 0-135.782l113.141-113.125c36.296-36.297 99.5-36.265 135.765 0 18.141 18.141 28.125 42.235 28.125 67.891 0 17.559-5 34.232-13.777 48.926 11.252 10.367 26.887 16.418 43.496 16.418.687 0 1.338-.168 2.021-.188 10.239-20.017 16.262-42.029 16.262-65.156 0-38.469-14.986-74.641-42.189-101.828-27.188-27.203-63.36-42.188-101.828-42.188-38.454 0-74.625 14.985-101.813 42.188L42.105 266.216C14.035 294.294 0 331.169 0 368.044s14.035 73.75 42.105 101.828c26.108 26.093 59.821 40.055 94.068 41.886 39.416 2.108 79.54-11.854 109.589-41.886l56.842-56.85c-14.389-7.423-27.911-16.527-39.989-27.884l-50.791 50.797Z"/></svg>